<svg width="22" height="22" viewBox="0 0 22 22" fill="none" xmlns="http://www.w3.org/2000/svg">
<path fill-rule="evenodd" clip-rule="evenodd" d="M1.83301 10.6772C1.83301 5.99583 5.69218 1.77728 11.018 1.77728C16.2247 1.77728 20.1663 5.91573 20.1663 10.6505C20.1663 16.1417 15.5463 19.5504 10.9997 19.5504C9.49634 19.5504 7.82801 19.1588 6.48968 18.3934C6.02217 18.1175 5.62801 17.9128 5.12384 18.073L3.27217 18.607C2.80467 18.7494 2.38301 18.3934 2.52051 17.9128L3.13467 15.9192C3.23551 15.6433 3.21717 15.3496 3.07051 15.1182C2.28217 13.712 1.83301 12.1723 1.83301 10.6772ZM6.75513 11.8253C6.11347 11.8253 5.5818 11.3091 5.5818 10.6861C5.5818 10.0542 6.1043 9.54689 6.75513 9.54689C7.40597 9.54689 7.92847 10.0542 7.92847 10.6861C7.92847 11.3091 7.40597 11.8164 6.75513 11.8253ZM9.80771 10.6774C9.80771 11.3093 10.3302 11.8165 10.981 11.8254C11.6319 11.8254 12.1544 11.3093 12.1544 10.6863C12.1544 10.0544 11.6319 9.54708 10.981 9.54708C10.3394 9.53818 9.80771 10.0544 9.80771 10.6774ZM14.0336 10.6861C14.0336 11.3091 14.5561 11.8253 15.2069 11.8253C15.8578 11.8253 16.3803 11.3091 16.3803 10.6861C16.3803 10.0543 15.8578 9.54696 15.2069 9.54696C14.5561 9.54696 14.0336 10.0543 14.0336 10.6861Z" fill="black"/>
</svg>
