<svg width="27" height="27" viewBox="0 0 27 27" fill="none" xmlns="http://www.w3.org/2000/svg">
<path d="M6.1875 19.125C7.11948 19.125 7.875 18.3695 7.875 17.4375C7.875 16.5055 7.11948 15.75 6.1875 15.75C5.25552 15.75 4.5 16.5055 4.5 17.4375C4.5 18.3695 5.25552 19.125 6.1875 19.125Z" fill="#990E4A"/>
<path d="M21.375 3.375H5.625C2.475 3.375 0 5.85 0 9V18C0 21.15 2.475 23.625 5.625 23.625H21.375C24.525 23.625 27 21.15 27 18V9C27 5.85 24.525 3.375 21.375 3.375ZM5.625 5.625H21.375C23.2875 5.625 24.75 7.0875 24.75 9H2.25C2.25 7.0875 3.7125 5.625 5.625 5.625ZM21.375 21.375H5.625C3.7125 21.375 2.25 19.9125 2.25 18V11.25H24.75V18C24.75 19.9125 23.2875 21.375 21.375 21.375Z" fill="#990E4A"/>
</svg>
