<svg width="20" height="23" viewBox="0 0 20 23" fill="none" xmlns="http://www.w3.org/2000/svg">
<path d="M19.0658 9.31064C18.9672 8.41825 18.5605 7.59025 17.9181 6.97402C17.2758 6.3578 16.4393 5.99328 15.5574 5.9452V5.68288C15.5583 4.93648 15.4139 4.19738 15.1329 3.50785C14.8519 2.81831 14.4397 2.19199 13.9198 1.665C13.4012 1.13641 12.7848 0.717263 12.1063 0.431529C11.4279 0.145795 10.7006 -0.000868603 9.96627 3.86982e-06C8.48387 0.000555495 7.06241 0.599551 6.01419 1.66538C4.96598 2.73122 4.37689 4.1767 4.37634 5.68402V5.94926C3.50619 6.01214 2.68502 6.38308 2.05587 6.99752C1.42671 7.61197 1.02935 8.43114 0.932487 9.31267L0 17.95C0.00460615 19.1081 0.461003 20.217 1.26905 21.0332C2.0771 21.8494 3.17092 22.3061 4.30988 22.303H15.6904C16.8293 22.3061 17.9229 21.8494 18.7309 21.0332C19.539 20.217 19.9954 19.1081 20 17.95L19.0658 9.31064ZM6.01794 5.69329C6.01781 5.16611 6.11971 4.64407 6.31803 4.15698C6.51634 3.66989 6.80724 3.22735 7.1738 2.85452C7.54037 2.4817 7.97536 2.18588 8.45435 1.98411C8.93334 1.78233 9.4468 1.6786 9.96527 1.6786C10.4839 1.67809 10.9973 1.78168 11.4764 1.98347C11.9555 2.18526 12.3909 2.48117 12.7572 2.8544C13.1245 3.22681 13.4156 3.6693 13.6143 4.15647C13.8129 4.64364 13.915 5.16592 13.9146 5.69329V5.93681H6.01794V5.69329ZM6.79676 11.598C6.66649 11.5981 6.53735 11.5721 6.41697 11.5215C6.29659 11.4709 6.18726 11.3965 6.09515 11.3029C6.00303 11.2092 5.93006 11.098 5.88027 10.9756C5.83048 10.8532 5.80492 10.722 5.80506 10.5896C5.80492 10.4571 5.83048 10.3259 5.88027 10.2035C5.93006 10.0811 6.00303 9.96984 6.09515 9.87618C6.18726 9.78251 6.29659 9.70831 6.41697 9.65769C6.53735 9.60706 6.66649 9.58108 6.79676 9.58121C6.92722 9.58094 7.05644 9.60676 7.17705 9.6573C7.29767 9.70784 7.40724 9.78202 7.49963 9.87567C7.59201 9.96932 7.66543 10.0805 7.71551 10.203C7.76558 10.3255 7.79133 10.4569 7.79146 10.5896C7.79133 10.7222 7.76558 10.8535 7.71551 10.976C7.66543 11.0985 7.59201 11.2097 7.49963 11.3034C7.40724 11.397 7.29767 11.4712 7.17705 11.5217C7.05644 11.5723 6.92722 11.5982 6.79676 11.598ZM13.2055 11.598C13.075 11.5982 12.9458 11.5723 12.8252 11.5217C12.7046 11.4712 12.595 11.397 12.5026 11.3034C12.4102 11.2097 12.3368 11.0985 12.2867 10.976C12.2367 10.8535 12.2109 10.7222 12.2108 10.5896C12.2109 10.4569 12.2367 10.3255 12.2867 10.203C12.3368 10.0805 12.4102 9.96932 12.5026 9.87567C12.595 9.78202 12.7046 9.70784 12.8252 9.6573C12.9458 9.60676 13.075 9.58094 13.2055 9.58121C13.3358 9.58108 13.4646 9.60706 13.585 9.65769C13.7054 9.70831 13.815 9.78251 13.9071 9.87618C13.9992 9.96984 14.0722 10.0811 14.122 10.2035C14.1718 10.3259 14.1973 10.4571 14.1972 10.5896C14.1973 10.722 14.1718 10.8532 14.122 10.9756C14.0722 11.098 13.9992 11.2092 13.9071 11.3029C13.815 11.3965 13.7054 11.4709 13.585 11.5215C13.4646 11.5721 13.3358 11.5981 13.2055 11.598Z" fill="#AFA6A9"/>
</svg>
