<svg width="24" height="24" viewBox="0 0 24 24" fill="none" xmlns="http://www.w3.org/2000/svg">
<path d="M21.0658 10.1841C20.9672 9.30387 20.5605 8.48712 19.9181 7.87927C19.2758 7.27141 18.4393 6.91185 17.5574 6.86442V6.60566C17.5583 5.86941 17.4139 5.14035 17.1329 4.46019C16.8519 3.78002 16.4397 3.16221 15.9198 2.64238C15.4012 2.12097 14.7848 1.70752 14.1063 1.42567C13.4279 1.14381 12.7006 0.999143 11.9663 1C10.4839 1.00055 9.06241 1.59141 8.01419 2.64276C6.96598 3.69411 6.37689 5.11996 6.37634 6.60679V6.86843C5.50619 6.93045 4.68502 7.29635 4.05587 7.90245C3.42671 8.50854 3.02935 9.31658 2.93249 10.1861L2 18.7061C2.00461 19.8485 2.461 20.9424 3.26905 21.7474C4.0771 22.5525 5.17092 23.003 6.30988 23H17.6904C18.8293 23.003 19.9229 22.5525 20.7309 21.7474C21.539 20.9424 21.9954 19.8485 22 18.7061L21.0658 10.1841ZM8.01794 6.61594C8.01781 6.09592 8.11971 5.58097 8.31803 5.1005C8.51634 4.62002 8.80724 4.1835 9.1738 3.81574C9.54037 3.44798 9.97536 3.15618 10.4544 2.95715C10.9333 2.75811 11.4468 2.65579 11.9653 2.65579C12.4839 2.65529 12.9973 2.75747 13.4764 2.95652C13.9555 3.15557 14.3909 3.44746 14.7572 3.81561C15.1245 4.18297 15.4156 4.61945 15.6143 5.09999C15.8129 5.58054 15.915 6.09573 15.9146 6.61594V6.85615H8.01794V6.61594ZM8.79676 12.4404C8.66649 12.4405 8.53735 12.4149 8.41697 12.3649C8.29659 12.315 8.18726 12.2417 8.09515 12.1493C8.00303 12.0569 7.93006 11.9473 7.88027 11.8265C7.83048 11.7058 7.80492 11.5764 7.80506 11.4457C7.80492 11.315 7.83048 11.1856 7.88027 11.0649C7.93006 10.9442 8.00303 10.8344 8.09515 10.742C8.18726 10.6496 8.29659 10.5764 8.41697 10.5265C8.53735 10.4765 8.66649 10.4509 8.79676 10.451C8.92722 10.4508 9.05644 10.4762 9.17705 10.5261C9.29767 10.5759 9.40724 10.6491 9.49963 10.7415C9.59201 10.8339 9.66543 10.9436 9.71551 11.0644C9.76558 11.1852 9.79133 11.3149 9.79146 11.4457C9.79133 11.5766 9.76558 11.7061 9.71551 11.8269C9.66543 11.9477 9.59201 12.0574 9.49963 12.1498C9.40724 12.2422 9.29767 12.3153 9.17705 12.3652C9.05644 12.4151 8.92722 12.4406 8.79676 12.4404ZM15.2055 12.4404C15.075 12.4406 14.9458 12.4151 14.8252 12.3652C14.7046 12.3153 14.595 12.2422 14.5026 12.1498C14.4102 12.0574 14.3368 11.9477 14.2867 11.8269C14.2367 11.7061 14.2109 11.5766 14.2108 11.4457C14.2109 11.3149 14.2367 11.1852 14.2867 11.0644C14.3368 10.9436 14.4102 10.8339 14.5026 10.7415C14.595 10.6491 14.7046 10.5759 14.8252 10.5261C14.9458 10.4762 15.075 10.4508 15.2055 10.451C15.3358 10.4509 15.4646 10.4765 15.585 10.5265C15.7054 10.5764 15.815 10.6496 15.9071 10.742C15.9992 10.8344 16.0722 10.9442 16.122 11.0649C16.1718 11.1856 16.1973 11.315 16.1972 11.4457C16.1973 11.5764 16.1718 11.7058 16.122 11.8265C16.0722 11.9473 15.9992 12.0569 15.9071 12.1493C15.815 12.2417 15.7054 12.315 15.585 12.3649C15.4646 12.4149 15.3358 12.4405 15.2055 12.4404Z" fill="#990E4A"/>
</svg>
