<svg width="21" height="21" viewBox="0 0 21 21" fill="none" xmlns="http://www.w3.org/2000/svg">
<path fill-rule="evenodd" clip-rule="evenodd" d="M0.083252 10.5157C0.083252 5.02829 4.46867 0.083374 10.5208 0.083374C16.4374 0.083374 20.9166 4.9344 20.9166 10.4844C20.9166 16.9211 15.6666 20.9167 10.4999 20.9167C8.79158 20.9167 6.89575 20.4577 5.37492 19.5605C4.84367 19.2371 4.39575 18.9972 3.82283 19.1849L1.71867 19.8109C1.18742 19.9778 0.708252 19.5605 0.864502 18.9972L1.56242 16.6603C1.677 16.3369 1.65617 15.9927 1.4895 15.7214C0.593669 14.0731 0.083252 12.2683 0.083252 10.5157ZM5.67668 11.8613C4.94751 11.8613 4.34334 11.2563 4.34334 10.526C4.34334 9.78532 4.93709 9.19067 5.67668 9.19067C6.41626 9.19067 7.01001 9.78532 7.01001 10.526C7.01001 11.2563 6.41626 11.8509 5.67668 11.8613ZM13.9478 10.526C13.9478 11.2563 14.5415 11.8613 15.2811 11.8613C16.0207 11.8613 16.6144 11.2563 16.6144 10.526C16.6144 9.78532 16.0207 9.19067 15.2811 9.19067C14.5415 9.19067 13.9478 9.78532 13.9478 10.526ZM9.14579 10.5158C9.14579 11.2565 9.73954 11.8512 10.4791 11.8616C11.2187 11.8616 11.8125 11.2565 11.8125 10.5263C11.8125 9.78557 11.2187 9.19093 10.4791 9.19093C9.74996 9.1805 9.14579 9.78557 9.14579 10.5158Z" fill="#990E4A"/>
</svg>
