<svg width="24" height="24" viewBox="0 0 24 24" fill="none" xmlns="http://www.w3.org/2000/svg">
<path d="M11.9734 1.18408C9.27845 1.18408 6.69379 2.29435 4.78816 4.27056C2.88252 6.24678 1.81201 8.9271 1.81201 11.7219C1.81201 14.5167 2.88252 17.197 4.78816 19.1732C6.69379 21.1494 9.27845 22.2597 11.9734 22.2597C14.6684 22.2597 17.2531 21.1494 19.1587 19.1732C21.0643 17.197 22.1348 14.5167 22.1348 11.7219C22.1348 8.9271 21.0643 6.24678 19.1587 4.27056C17.2531 2.29435 14.6684 1.18408 11.9734 1.18408ZM15.7741 8.60455L14.3281 13.7094C14.2981 13.816 14.2426 13.9131 14.1669 13.9917C14.0913 14.0703 13.9978 14.1279 13.8951 14.1592L8.96819 15.6632C8.85712 15.6972 8.73943 15.6993 8.6273 15.6693C8.51517 15.6393 8.41297 15.5783 8.33161 15.4928C8.25026 15.4074 8.19274 15.3006 8.16525 15.1839C8.13776 15.0673 8.14132 14.9451 8.1755 14.8303L9.68052 9.77875C9.71122 9.67554 9.76571 9.58169 9.83936 9.50532C9.913 9.42894 10.0037 9.37238 10.1032 9.34055L14.9709 7.78413C15.0814 7.74885 15.1989 7.74521 15.3112 7.77365C15.4235 7.8021 15.5262 7.86152 15.6085 7.94564C15.6909 8.02976 15.7498 8.13546 15.7789 8.25146C15.808 8.36747 15.8064 8.48947 15.7741 8.60455Z" fill="#990E4A"/>
</svg>
