<svg width="22" height="22" viewBox="0 0 22 22" fill="none" xmlns="http://www.w3.org/2000/svg">
<circle cx="11" cy="11" r="10" stroke="#990E4A" stroke-width="2"/>
<path d="M11.67 7.59C12.3833 7.59 12.9533 7.77667 13.38 8.15C13.8133 8.52333 14.03 9.05 14.03 9.73C14.03 10.3567 13.8233 10.8467 13.41 11.2C13.0033 11.5467 12.4633 11.7233 11.79 11.73L11.74 12.48H10.24L10.19 10.62H10.79C11.3033 10.62 11.6933 10.5567 11.96 10.43C12.2333 10.3033 12.37 10.0733 12.37 9.74C12.37 9.50667 12.3067 9.32333 12.18 9.19C12.0533 9.05667 11.8767 8.99 11.65 8.99C11.41 8.99 11.2233 9.06 11.09 9.2C10.9567 9.33333 10.89 9.51667 10.89 9.75H9.28C9.26667 9.34333 9.35 8.97667 9.53 8.65C9.71667 8.32333 9.99 8.06667 10.35 7.88C10.7167 7.68667 11.1567 7.59 11.67 7.59ZM11.01 15.08C10.71 15.08 10.4633 14.9933 10.27 14.82C10.0833 14.64 9.99 14.42 9.99 14.16C9.99 13.8933 10.0833 13.67 10.27 13.49C10.4633 13.31 10.71 13.22 11.01 13.22C11.3033 13.22 11.5433 13.31 11.73 13.49C11.9233 13.67 12.02 13.8933 12.02 14.16C12.02 14.42 11.9233 14.64 11.73 14.82C11.5433 14.9933 11.3033 15.08 11.01 15.08Z" fill="#990E4A"/>
</svg>
