<svg width="16" height="16" viewBox="0 0 16 16" fill="none" xmlns="http://www.w3.org/2000/svg">
<g clip-path="url(#clip0_1327_2015)">
<path d="M4.67202 0.793751C4.47514 0.884376 3.75327 1.30313 3.68139 1.36875C3.60327 1.43438 3.60952 1.60938 3.68764 1.6875C3.79389 1.79375 3.90014 1.7625 4.41577 1.46875C4.68452 1.3125 4.94389 1.1875 4.98452 1.1875C5.08139 1.1875 9.32514 3.625 9.43139 3.74063L9.50014 3.81563L9.49389 5.27188L9.48452 6.72813L8.58764 7.24688C8.09077 7.53125 7.64389 7.80625 7.59077 7.85938C7.41264 8.02813 7.40639 8.05938 7.40639 9.15313V10.1531L7.32202 10.2125C7.09077 10.3688 5.03452 11.5313 4.98452 11.5313C4.95327 11.5313 4.68764 11.3938 4.39389 11.225C1.51889 9.56875 0.568892 9.01563 0.525142 8.9625C0.472017 8.90313 0.468892 8.73438 0.468892 6.3625C0.468892 4.17813 0.475142 3.81875 0.515767 3.75938C0.540767 3.725 1.10639 3.38125 1.77202 2.99688C2.44077 2.6125 3.01577 2.26563 3.05639 2.22813C3.09389 2.19063 3.12514 2.12188 3.12514 2.07813C3.12514 1.97813 2.99702 1.84375 2.90014 1.84375C2.80327 1.84375 0.356392 3.25938 0.212642 3.4C-0.00923321 3.6125 -0.00298321 3.5 0.00639179 6.40938C0.0157668 9.00938 0.0157668 9.01563 0.0845168 9.14063C0.118892 9.20938 0.184517 9.29688 0.225142 9.33438C0.262642 9.37188 1.28452 9.97188 2.49389 10.6719C3.96889 11.5219 4.74077 11.95 4.84389 11.975C4.95327 12 5.03139 12 5.13452 11.9719C5.21264 11.9531 5.75327 11.6625 6.33452 11.3281L7.39077 10.7188L7.40639 11.7406C7.42202 12.7281 7.42514 12.7688 7.49077 12.8594C7.52514 12.9094 7.59077 12.9844 7.63139 13.0188C7.66889 13.0563 8.55327 13.575 9.59389 14.175L11.4845 15.2656H11.7033H11.922L13.8126 14.175C15.047 13.4625 15.7439 13.0406 15.8189 12.9625C15.8814 12.8969 15.9501 12.7906 15.9658 12.7281C15.9876 12.6594 16.0001 12.25 16.0001 11.7469C16.0001 10.9219 15.997 10.8813 15.9345 10.8C15.847 10.6875 15.6845 10.6875 15.597 10.8C15.5345 10.8813 15.5314 10.9219 15.5314 11.7313C15.5314 12.3656 15.522 12.5938 15.4939 12.6313C15.472 12.6594 14.6189 13.1625 13.6001 13.75C12.2376 14.5375 11.7283 14.8156 11.6751 14.8063C11.6001 14.7906 8.03139 12.7469 7.93139 12.6625C7.87827 12.6188 7.87514 12.4719 7.87514 10.4219C7.87514 8.37188 7.87827 8.225 7.93139 8.18125C8.05014 8.07813 11.6376 6.03125 11.7001 6.03125C11.7751 6.03125 15.4314 8.13125 15.4939 8.20938C15.522 8.25 15.5314 8.475 15.5314 9.0875C15.5314 9.55313 15.5439 9.93438 15.5626 9.96563C15.5783 9.99688 15.6314 10.0406 15.6845 10.0594C15.7595 10.0906 15.7908 10.0906 15.8689 10.05C15.9189 10.025 15.9689 9.97813 15.9814 9.95313C16.0158 9.8625 16.0033 8.24375 15.9658 8.1125C15.947 8.04375 15.8783 7.94063 15.8001 7.8625C15.7126 7.77813 15.0345 7.36875 13.7939 6.65625L11.922 5.57813H11.7001H11.4814L10.7314 6.00938L9.98452 6.4375L9.96889 5.07188C9.95327 3.74375 9.95014 3.7 9.88452 3.57813C9.85014 3.50938 9.77827 3.41563 9.72827 3.36875C9.68139 3.325 9.28139 3.07813 8.84389 2.82813C8.40639 2.575 7.45014 2.02188 6.72202 1.60313C5.99389 1.18125 5.34077 0.809376 5.26889 0.778126C5.09077 0.696876 4.86264 0.703126 4.67202 0.793751Z" fill="white"/>
<path d="M2.5939 2.87812C2.2064 3.10312 1.86577 3.30937 1.83765 3.33437C1.70327 3.45312 1.81265 3.71875 1.9939 3.71875C2.07827 3.71875 3.40952 2.97812 3.5564 2.84687C3.6439 2.77187 3.6439 2.65937 3.55952 2.55C3.44702 2.40625 3.36265 2.43437 2.5939 2.87812Z" fill="white"/>
<path d="M1.33127 4.15916C1.23752 4.23416 1.2219 4.38416 1.30002 4.47166C1.32502 4.49979 2.11252 4.96541 3.05002 5.50604L4.75002 6.48416V7.61854C4.75002 8.28416 4.76252 8.77791 4.78127 8.80916C4.7969 8.84041 4.85002 8.88416 4.90315 8.90291C4.97815 8.93416 5.0094 8.93416 5.08752 8.89354C5.13752 8.86854 5.18752 8.82166 5.20002 8.79666C5.2094 8.76854 5.21877 8.23729 5.21877 7.61541V6.48416L6.92502 5.50291C7.86252 4.96229 8.65002 4.49354 8.67502 4.45604C8.6969 4.42166 8.71877 4.35916 8.71877 4.31854C8.71877 4.22791 8.58752 4.09354 8.4969 4.09354C8.4594 4.09354 7.66877 4.53416 6.73752 5.06854C5.80627 5.60604 5.01877 6.04666 4.9844 6.04666C4.95002 6.04666 4.1594 5.60604 3.23127 5.06854C2.30002 4.53416 1.5094 4.09354 1.47815 4.09354C1.44377 4.09354 1.37815 4.12166 1.33127 4.15916Z" fill="white"/>
<path d="M11.6407 6.40313C11.5157 6.4375 10.1845 7.225 10.1564 7.28125C10.0751 7.43125 10.1845 7.625 10.3501 7.625C10.4501 7.625 11.7657 6.875 11.8689 6.7625C11.9532 6.66563 11.9564 6.59375 11.8751 6.49375C11.8064 6.40625 11.7345 6.37813 11.6407 6.40313Z" fill="white"/>
<path d="M8.59406 8.47837C8.55344 8.50024 8.50344 8.55649 8.48781 8.60337C8.41906 8.79712 8.41594 8.79712 9.98469 9.70337L11.4534 10.5502L11.4628 12.2721L11.4691 13.9971L11.5503 14.0596C11.6534 14.1409 11.7534 14.144 11.8472 14.0659L11.9222 14.0065L11.9316 12.2752L11.9409 10.5471L13.2722 9.78149C14.0066 9.35962 14.6659 8.97837 14.7409 8.93149C14.9128 8.82212 14.9597 8.72524 14.9066 8.59712C14.8534 8.46587 14.7284 8.42837 14.5753 8.50024C14.5066 8.53149 13.8409 8.90962 13.0941 9.34399C12.3472 9.77837 11.7222 10.1346 11.7034 10.1346C11.6878 10.1346 11.0253 9.76274 10.2347 9.30649C9.44406 8.85024 8.76906 8.46899 8.73469 8.45649C8.70031 8.44712 8.63781 8.45649 8.59406 8.47837Z" fill="white"/>
<path d="M4.81875 9.63421C4.75625 9.69984 4.75 9.74046 4.75 10.0967C4.75 10.4655 4.75313 10.4936 4.82187 10.5561C4.925 10.653 5.07188 10.6467 5.15313 10.5436C5.2125 10.4686 5.21875 10.4186 5.21875 10.0936C5.21875 9.76859 5.2125 9.71859 5.15313 9.64359C5.06875 9.53734 4.9125 9.53109 4.81875 9.63421Z" fill="white"/>
</g>
<defs>
<clipPath id="clip0_1327_2015">
<rect width="16" height="16" fill="white"/>
</clipPath>
</defs>
</svg>
