<svg width="20" height="24" viewBox="0 0 20 24" fill="none" xmlns="http://www.w3.org/2000/svg">
<path fill-rule="evenodd" clip-rule="evenodd" d="M0.233398 10.0934C0.233398 4.88024 4.5898 0.666626 9.8593 0.666626C15.1437 0.666626 19.5001 4.88024 19.5001 10.0934C19.5001 12.7204 18.5447 15.1593 16.9722 17.2264C15.2374 19.5066 13.0992 21.4933 10.6924 23.0527C10.1416 23.4131 9.64445 23.4403 9.03991 23.0527C6.61943 21.4933 4.48123 19.5066 2.7613 17.2264C1.18765 15.1593 0.233398 12.7204 0.233398 10.0934ZM6.68691 10.3871C6.68691 12.1335 8.112 13.5071 9.85936 13.5071C11.6079 13.5071 13.0467 12.1335 13.0467 10.3871C13.0467 8.65432 11.6079 7.21389 9.85936 7.21389C8.112 7.21389 6.68691 8.65432 6.68691 10.3871Z" fill="white"/>
</svg>
