<svg width="34" height="28" viewBox="0 0 34 28" fill="none" xmlns="http://www.w3.org/2000/svg">
<path d="M30.3335 0.666504H3.66683C1.8335 0.666504 0.350163 2.1665 0.350163 3.99984L0.333496 23.9998C0.333496 25.8332 1.8335 27.3332 3.66683 27.3332H30.3335C32.1668 27.3332 33.6668 25.8332 33.6668 23.9998V3.99984C33.6668 2.1665 32.1668 0.666504 30.3335 0.666504ZM29.6668 7.74984L17.8835 15.1165C17.3502 15.4498 16.6502 15.4498 16.1168 15.1165L4.3335 7.74984C4.16638 7.65602 4.02003 7.52927 3.90331 7.37726C3.78659 7.22525 3.70193 7.05113 3.65446 6.86545C3.60698 6.67978 3.59767 6.4864 3.62709 6.29701C3.65651 6.10763 3.72406 5.92619 3.82563 5.76367C3.92721 5.60115 4.0607 5.46093 4.21804 5.3515C4.37538 5.24206 4.55328 5.16569 4.74099 5.127C4.9287 5.08831 5.1223 5.08811 5.31009 5.12642C5.49787 5.16472 5.67594 5.24073 5.8335 5.34984L17.0002 12.3332L28.1668 5.34984C28.3244 5.24073 28.5025 5.16472 28.6902 5.12642C28.878 5.08811 29.0716 5.08831 29.2593 5.127C29.447 5.16569 29.625 5.24206 29.7823 5.3515C29.9396 5.46093 30.0731 5.60115 30.1747 5.76367C30.2763 5.92619 30.3438 6.10763 30.3732 6.29701C30.4027 6.4864 30.3934 6.67978 30.3459 6.86545C30.2984 7.05113 30.2137 7.22525 30.097 7.37726C29.9803 7.52927 29.834 7.65602 29.6668 7.74984Z" fill="#990E4A"/>
</svg>
