<svg width="30" height="30" viewBox="0 0 30 30" fill="none" xmlns="http://www.w3.org/2000/svg">
<path d="M15.0005 3.43762C6.32924 3.43762 3.43799 6.32887 3.43799 15.0001C3.43799 23.6714 6.32924 26.5626 15.0005 26.5626C23.6717 26.5626 26.563 23.6714 26.563 15.0001" stroke="#990E4A" stroke-width="2.5" stroke-linecap="round" stroke-linejoin="round"/>
<path fill-rule="evenodd" clip-rule="evenodd" d="M24.411 5.37975V5.37975C23.1698 4.281 21.2735 4.396 20.1748 5.63725C20.1748 5.63725 14.7135 11.806 12.8198 13.9472C10.9235 16.0872 12.3135 19.0435 12.3135 19.0435C12.3135 19.0435 15.4435 20.0347 17.311 17.9247C19.1798 15.8147 24.6685 9.616 24.6685 9.616C25.7673 8.37475 25.651 6.4785 24.411 5.37975Z" stroke="#990E4A" stroke-width="2.5" stroke-linecap="round" stroke-linejoin="round"/>
<path d="M18.7617 7.25099L23.2555 11.2297" stroke="#990E4A" stroke-width="2.5" stroke-linecap="round" stroke-linejoin="round"/>
</svg>
