<svg width="27" height="26" viewBox="0 0 27 26" fill="none" xmlns="http://www.w3.org/2000/svg">
<path d="M1.16654 6.37975L-0.00683594 4.53809L7.57004 0.0671692L8.74229 1.91534L1.16654 6.37975ZM25.0582 17.5684L20.4175 24.8083L22.33 25.9469L26.9707 18.7059L25.0582 17.5684ZM23.5394 15.8167L17.9999 24.4649C17.7474 24.8767 17.4 25.227 16.9845 25.4889C16.569 25.7507 16.0966 25.9171 15.6037 25.9751C15.4618 25.9917 15.3191 26 15.1762 26C14.747 26.0003 14.322 25.9187 13.9258 25.7599C13.5295 25.6011 13.1699 25.3683 12.8677 25.0748L11.7843 24.0316C10.755 24.7253 9.50479 25.0477 8.25323 24.942C7.00167 24.8363 5.8288 24.3093 4.94062 23.4536C4.05244 22.598 3.50575 21.4683 3.39655 20.263C3.28736 19.0578 3.62265 17.854 4.34354 16.8632L0.959539 13.6034C0.616262 13.2728 0.3536 12.8729 0.190565 12.4326C0.0275295 11.9922 -0.031801 11.5225 0.0168677 11.0574C0.0655363 10.5922 0.220987 10.1433 0.471967 9.74317C0.722948 9.343 1.06318 9.00156 1.46804 8.74358L10.2003 3.59775C11.8512 2.57884 13.7914 2.08216 15.7498 2.17714C17.7081 2.27212 19.5867 2.95402 21.1229 4.1275L23.2514 2.07784L24.8422 3.60967L22.7047 5.668C23.8716 7.08998 24.5738 8.81355 24.7224 10.6203C24.871 12.427 24.4593 14.2355 23.5394 15.8167ZM10.1362 22.4445L5.98266 18.4416C5.67372 19.0014 5.56061 19.6423 5.66012 20.269C5.75964 20.8957 6.06648 21.4748 6.53504 21.9202C7.00713 22.3524 7.60575 22.6346 8.24987 22.7283C8.89398 22.8221 9.55247 22.723 10.1362 22.4445ZM20.3962 6.39167C19.2355 5.26534 17.7088 4.55646 16.0709 4.38335C14.4329 4.21025 12.7829 4.58339 11.3962 5.4405L2.67516 10.5712C2.55585 10.6514 2.45638 10.7561 2.38385 10.8776C2.31132 10.9991 2.26751 11.1346 2.25554 11.2743C2.23929 11.4199 2.25736 11.5673 2.30839 11.7053C2.35942 11.8434 2.4421 11.9686 2.55029 12.0716L14.4595 23.543C14.5688 23.6513 14.7031 23.7333 14.8515 23.7822C14.9998 23.8312 15.1581 23.8457 15.3134 23.8247C15.4689 23.8066 15.6178 23.754 15.7486 23.6711C15.8794 23.5882 15.9884 23.4773 16.0672 23.3469L21.6022 14.7095C22.3655 13.3848 22.6606 11.8569 22.4431 10.3565C22.2255 8.85601 21.5071 7.46441 20.3962 6.39167Z" fill="#990E4A"/>
</svg>
