<svg width="16" height="16" viewBox="0 0 16 16" fill="none" xmlns="http://www.w3.org/2000/svg">
<path d="M8.00001 1.3333C8.88435 1.3362 9.75933 1.51446 10.5743 1.85776C11.3893 2.20106 12.1281 2.70258 12.748 3.3333H10V4.66663H13.4287C13.7569 4.66628 14.0716 4.53574 14.3037 4.30364C14.5358 4.07155 14.6663 3.75686 14.6667 3.42863V-3.31672e-05H13.3333V2.05197C12.185 1.01787 10.7613 0.33907 9.23495 0.0978393C7.70856 -0.143392 6.14496 0.0633048 4.73368 0.692876C3.32241 1.32245 2.12404 2.34786 1.28384 3.64483C0.443639 4.9418 -0.00232278 6.45463 9.0982e-06 7.99997H1.33334C1.33528 6.23245 2.03829 4.53789 3.28811 3.28807C4.53793 2.03824 6.23249 1.33524 8.00001 1.3333Z" fill="#990E4A"/>
<path d="M14.6668 8C14.6687 9.32356 14.2761 10.6177 13.539 11.717C12.802 12.8163 11.7539 13.671 10.5288 14.1719C9.30369 14.6728 7.95706 14.7971 6.66094 14.529C5.36482 14.2609 4.17804 13.6125 3.25216 12.6667H6.00016V11.3333H2.5715C2.24327 11.3337 1.92858 11.4642 1.69649 11.6963C1.46439 11.9284 1.33385 12.2431 1.3335 12.5713V16H2.66683V13.948C3.81518 14.9821 5.23883 15.6609 6.76522 15.9021C8.29162 16.1434 9.85521 15.9367 11.2665 15.3071C12.6778 14.6775 13.8761 13.6521 14.7163 12.3551C15.5565 11.0582 16.0025 9.54533 16.0002 8H14.6668Z" fill="#990E4A"/>
</svg>
