<svg width="26" height="26" viewBox="0 0 26 26" fill="none" xmlns="http://www.w3.org/2000/svg">
<path d="M24.7942 1.22748C24.169 0.585748 23.2436 0.346671 22.3807 0.598331L2.26 6.4494C1.34962 6.70232 0.704359 7.42836 0.530538 8.35069C0.352965 9.28938 0.973219 10.481 1.78355 10.9793L8.07488 14.846C8.72014 15.2424 9.55298 15.143 10.087 14.6044L17.2911 7.35538C17.6538 6.97789 18.254 6.97789 18.6167 7.35538C18.9793 7.72028 18.9793 8.31168 18.6167 8.68917L11.4 15.9395C10.8648 16.4768 10.7647 17.3135 11.1586 17.9628L15.0027 24.3172C15.4529 25.0722 16.2282 25.5 17.0786 25.5C17.1786 25.5 17.2911 25.5 17.3912 25.4874C18.3666 25.3616 19.1419 24.6947 19.4295 23.751L25.3945 3.65599C25.6571 2.80035 25.4195 1.86921 24.7942 1.22748Z" fill="#990E4A"/>
</svg>
