<svg width="28" height="29" viewBox="0 0 28 29" fill="none" xmlns="http://www.w3.org/2000/svg">
<path fill-rule="evenodd" clip-rule="evenodd" d="M7.58341 12.4583C7.04193 12.4583 6.52263 12.6734 6.13974 13.0563C5.75685 13.4392 5.54175 13.9585 5.54175 14.5C5.54175 15.0415 5.75685 15.5608 6.13974 15.9437C6.52263 16.3265 7.04193 16.5416 7.58341 16.5416C8.1249 16.5416 8.6442 16.3265 9.02709 15.9437C9.40998 15.5608 9.62508 15.0415 9.62508 14.5C9.62508 13.9585 9.40998 13.4392 9.02709 13.0563C8.6442 12.6734 8.1249 12.4583 7.58341 12.4583ZM4.9023 11.8189C5.61338 11.1078 6.5778 10.7083 7.58341 10.7083C8.58903 10.7083 9.55345 11.1078 10.2645 11.8189C10.9756 12.5299 11.3751 13.4944 11.3751 14.5C11.3751 15.5056 10.9756 16.47 10.2645 17.1811C9.55345 17.8922 8.58903 18.2916 7.58341 18.2916C6.5778 18.2916 5.61338 17.8922 4.9023 17.1811C4.19123 16.47 3.79175 15.5056 3.79175 14.5C3.79175 13.4944 4.19123 12.5299 4.9023 11.8189Z" fill="#212121"/>
<path fill-rule="evenodd" clip-rule="evenodd" d="M17.0502 7.58155C17.3274 7.97744 17.2311 8.52303 16.8352 8.80016L11.0019 12.8835C10.606 13.1606 10.0604 13.0643 9.78325 12.6684C9.50612 12.2725 9.6024 11.727 9.9983 11.4498L15.8316 7.3665C16.2275 7.08937 16.7731 7.18565 17.0502 7.58155ZM9.78325 16.3315C10.0604 15.9357 10.606 15.8394 11.0019 16.1165L16.8352 20.1998C17.2311 20.477 17.3274 21.0225 17.0502 21.4184C16.7731 21.8143 16.2275 21.9106 15.8316 21.6335L9.9983 17.5502C9.6024 17.273 9.50612 16.7274 9.78325 16.3315Z" fill="#212121"/>
<path fill-rule="evenodd" clip-rule="evenodd" d="M19.2502 4.875C18.7087 4.875 18.1894 5.0901 17.8065 5.47299C17.4236 5.85588 17.2085 6.37518 17.2085 6.91667C17.2085 7.45815 17.4236 7.97746 17.8065 8.36034C18.1894 8.74323 18.7087 8.95833 19.2502 8.95833C19.7916 8.95833 20.311 8.74323 20.6938 8.36034C21.0767 7.97746 21.2918 7.45815 21.2918 6.91667C21.2918 6.37518 21.0767 5.85588 20.6938 5.47299C20.311 5.0901 19.7916 4.875 19.2502 4.875ZM16.569 4.23555C17.2801 3.52448 18.2446 3.125 19.2502 3.125C20.2558 3.125 21.2202 3.52448 21.9313 4.23555C22.6424 4.94663 23.0418 5.91105 23.0418 6.91667C23.0418 7.92228 22.6424 8.8867 21.9313 9.59778C21.2202 10.3089 20.2558 10.7083 19.2502 10.7083C18.2446 10.7083 17.2801 10.3089 16.569 9.59778C15.858 8.8867 15.4585 7.92228 15.4585 6.91667C15.4585 5.91105 15.858 4.94663 16.569 4.23555ZM19.2502 20.0417C18.7087 20.0417 18.1894 20.2568 17.8065 20.6397C17.4236 21.0225 17.2085 21.5418 17.2085 22.0833C17.2085 22.6248 17.4236 23.1441 17.8065 23.527C18.1894 23.9099 18.7087 24.125 19.2502 24.125C19.7916 24.125 20.311 23.9099 20.6938 23.527C21.0767 23.1441 21.2918 22.6248 21.2918 22.0833C21.2918 21.5418 21.0767 21.0225 20.6938 20.6397C20.311 20.2568 19.7916 20.0417 19.2502 20.0417ZM16.569 19.4022C17.2801 18.6911 18.2446 18.2917 19.2502 18.2917C20.2558 18.2917 21.2202 18.6911 21.9313 19.4022C22.6424 20.1133 23.0418 21.0777 23.0418 22.0833C23.0418 23.0889 22.6424 24.0534 21.9313 24.7644C21.2202 25.4755 20.2558 25.875 19.2502 25.875C18.2446 25.875 17.2801 25.4755 16.569 24.7644C15.858 24.0534 15.4585 23.0889 15.4585 22.0833C15.4585 21.0777 15.858 20.1133 16.569 19.4022Z" fill="#212121"/>
</svg>
