<svg width="12" height="14" viewBox="0 0 12 14" fill="none" xmlns="http://www.w3.org/2000/svg">
<path fill-rule="evenodd" clip-rule="evenodd" d="M0.333496 5.87848C0.333496 2.81191 2.89608 0.333313 5.99579 0.333313C9.10424 0.333313 11.6668 2.81191 11.6668 5.87848C11.6668 7.42377 11.1048 8.8584 10.1798 10.0744C9.15937 11.4157 7.9016 12.5843 6.48586 13.5016C6.16184 13.7136 5.86941 13.7296 5.5138 13.5016C4.08999 12.5843 2.83222 11.4157 1.8205 10.0744C0.894818 8.8584 0.333496 7.42377 0.333496 5.87848ZM4.12965 6.05115C4.12965 7.07845 4.96793 7.88643 5.99579 7.88643C7.02432 7.88643 7.87068 7.07845 7.87068 6.05115C7.87068 5.03184 7.02432 4.18453 5.99579 4.18453C4.96793 4.18453 4.12965 5.03184 4.12965 6.05115Z" fill="#990E4A"/>
</svg>
