<svg width="40" height="40" viewBox="0 0 40 40" fill="none" xmlns="http://www.w3.org/2000/svg">
<path d="M31.7835 8.21687C29.0489 5.46437 25.4396 3.75222 21.5779 3.3756C17.7162 2.99898 13.8441 3.9815 10.6292 6.15375C7.41423 8.32601 5.05792 11.5519 3.96647 15.2752C2.87502 18.9986 3.11682 22.986 4.6502 26.5502C4.81001 26.8815 4.86245 27.2544 4.8002 27.6169L3.33353 34.6669C3.27702 34.9372 3.28856 35.2173 3.36711 35.482C3.44566 35.7467 3.58875 35.9878 3.78353 36.1835C3.9432 36.342 4.13332 36.4666 4.34242 36.5497C4.55152 36.6327 4.77527 36.6726 5.0002 36.6669H5.33353L12.4669 35.2335C12.8294 35.1899 13.1971 35.2416 13.5335 35.3835C17.0977 36.9169 21.0852 37.1587 24.8085 36.0673C28.5318 34.9758 31.7577 32.6195 33.93 29.4046C36.1022 26.1896 37.0847 22.3175 36.7081 18.4558C36.3315 14.5941 34.6194 10.9848 31.8669 8.2502L31.7835 8.21687ZM13.3335 21.6669C13.0039 21.6669 12.6817 21.5691 12.4076 21.386C12.1335 21.2028 11.9199 20.9425 11.7937 20.638C11.6676 20.3335 11.6346 19.9984 11.6989 19.675C11.7632 19.3517 11.9219 19.0548 12.155 18.8217C12.3881 18.5886 12.6851 18.4299 13.0084 18.3656C13.3317 18.3012 13.6668 18.3343 13.9713 18.4604C14.2759 18.5865 14.5362 18.8002 14.7193 19.0742C14.9024 19.3483 15.0002 19.6706 15.0002 20.0002C15.0002 20.4422 14.8246 20.8661 14.512 21.1787C14.1995 21.4913 13.7756 21.6669 13.3335 21.6669ZM20.0002 21.6669C19.6706 21.6669 19.3483 21.5691 19.0742 21.386C18.8002 21.2028 18.5865 20.9425 18.4604 20.638C18.3342 20.3335 18.3012 19.9984 18.3656 19.675C18.4299 19.3517 18.5886 19.0548 18.8217 18.8217C19.0548 18.5886 19.3517 18.4299 19.675 18.3656C19.9983 18.3012 20.3335 18.3343 20.638 18.4604C20.9425 18.5865 21.2028 18.8002 21.386 19.0742C21.5691 19.3483 21.6669 19.6706 21.6669 20.0002C21.6669 20.4422 21.4913 20.8661 21.1787 21.1787C20.8661 21.4913 20.4422 21.6669 20.0002 21.6669ZM26.6669 21.6669C26.3372 21.6669 26.015 21.5691 25.7409 21.386C25.4668 21.2028 25.2532 20.9425 25.1271 20.638C25.0009 20.3335 24.9679 19.9984 25.0322 19.675C25.0965 19.3517 25.2553 19.0548 25.4883 18.8217C25.7214 18.5886 26.0184 18.4299 26.3417 18.3656C26.665 18.3012 27.0001 18.3343 27.3047 18.4604C27.6092 18.5865 27.8695 18.8002 28.0526 19.0742C28.2358 19.3483 28.3335 19.6706 28.3335 20.0002C28.3335 20.4422 28.1579 20.8661 27.8454 21.1787C27.5328 21.4913 27.1089 21.6669 26.6669 21.6669Z" fill="#990E4A"/>
</svg>
