<svg width="21" height="21" viewBox="0 0 21 21" fill="none" xmlns="http://www.w3.org/2000/svg">
<g clip-path="url(#clip0_993_3249)">
<path d="M6.125 0H3.5C2.57174 0 1.6815 0.368749 1.02513 1.02513C0.368749 1.6815 0 2.57174 0 3.5L0 6.125C0 7.05326 0.368749 7.9435 1.02513 8.59987C1.6815 9.25625 2.57174 9.625 3.5 9.625H6.125C7.05326 9.625 7.9435 9.25625 8.59987 8.59987C9.25625 7.9435 9.625 7.05326 9.625 6.125V3.5C9.625 2.57174 9.25625 1.6815 8.59987 1.02513C7.9435 0.368749 7.05326 0 6.125 0V0ZM7.875 6.125C7.875 6.58913 7.69063 7.03425 7.36244 7.36244C7.03425 7.69063 6.58913 7.875 6.125 7.875H3.5C3.03587 7.875 2.59075 7.69063 2.26256 7.36244C1.93437 7.03425 1.75 6.58913 1.75 6.125V3.5C1.75 3.03587 1.93437 2.59075 2.26256 2.26256C2.59075 1.93437 3.03587 1.75 3.5 1.75H6.125C6.58913 1.75 7.03425 1.93437 7.36244 2.26256C7.69063 2.59075 7.875 3.03587 7.875 3.5V6.125Z" fill="black"/>
<path d="M6.125 11.375H3.5C2.57174 11.375 1.6815 11.7437 1.02513 12.4001C0.368749 13.0565 0 13.9467 0 14.875L0 17.5C0 18.4283 0.368749 19.3185 1.02513 19.9749C1.6815 20.6313 2.57174 21 3.5 21H6.125C7.05326 21 7.9435 20.6313 8.59987 19.9749C9.25625 19.3185 9.625 18.4283 9.625 17.5V14.875C9.625 13.9467 9.25625 13.0565 8.59987 12.4001C7.9435 11.7437 7.05326 11.375 6.125 11.375ZM7.875 17.5C7.875 17.9641 7.69063 18.4092 7.36244 18.7374C7.03425 19.0656 6.58913 19.25 6.125 19.25H3.5C3.03587 19.25 2.59075 19.0656 2.26256 18.7374C1.93437 18.4092 1.75 17.9641 1.75 17.5V14.875C1.75 14.4109 1.93437 13.9658 2.26256 13.6376C2.59075 13.3094 3.03587 13.125 3.5 13.125H6.125C6.58913 13.125 7.03425 13.3094 7.36244 13.6376C7.69063 13.9658 7.875 14.4109 7.875 14.875V17.5Z" fill="black"/>
<path d="M19.5063 16.6677L17.4999 18.6714V2.30369L19.5063 4.30744C19.5876 4.38868 19.6841 4.45311 19.7903 4.49706C19.8965 4.541 20.0103 4.5636 20.1252 4.56356C20.2402 4.56352 20.354 4.54084 20.4601 4.49682C20.5663 4.4528 20.6628 4.3883 20.744 4.30701C20.8252 4.22571 20.8897 4.12921 20.9336 4.02301C20.9776 3.91681 21.0002 3.803 21.0001 3.68807C21.0001 3.57314 20.9774 3.45935 20.9334 3.35318C20.8894 3.24701 20.8249 3.15056 20.7436 3.06932L18.4799 0.809194C17.9877 0.317617 17.3206 0.0415039 16.6249 0.0415039C15.9293 0.0415039 15.2621 0.317617 14.7699 0.809194L12.5063 3.06932C12.425 3.15056 12.3605 3.24701 12.3165 3.35318C12.2725 3.45935 12.2498 3.57314 12.2498 3.68807C12.2497 3.803 12.2723 3.91681 12.3163 4.02301C12.3602 4.12921 12.4246 4.22571 12.5059 4.30701C12.5871 4.3883 12.6836 4.4528 12.7897 4.49682C12.8959 4.54084 13.0097 4.56352 13.1246 4.56356C13.2396 4.5636 13.3534 4.541 13.4596 4.49706C13.5658 4.45311 13.6623 4.38868 13.7436 4.30744L15.7499 2.30369V18.6714L13.7436 16.6677C13.6623 16.5865 13.5658 16.522 13.4596 16.4781C13.3534 16.4341 13.2396 16.4115 13.1246 16.4116C13.0097 16.4116 12.8959 16.4343 12.7897 16.4783C12.6836 16.5223 12.5871 16.5868 12.5059 16.6681C12.4246 16.7494 12.3602 16.8459 12.3163 16.9521C12.2723 17.0583 12.2497 17.1721 12.2498 17.2871C12.2498 17.402 12.2725 17.5158 12.3165 17.622C12.3605 17.7281 12.425 17.8246 12.5063 17.9058L14.7699 20.1659C15.2621 20.6575 15.9293 20.9336 16.6249 20.9336C17.3206 20.9336 17.9877 20.6575 18.4799 20.1659L20.7436 17.9058C20.8249 17.8246 20.8894 17.7281 20.9334 17.622C20.9774 17.5158 21.0001 17.402 21.0001 17.2871C21.0002 17.1721 20.9776 17.0583 20.9336 16.9521C20.8897 16.8459 20.8252 16.7494 20.744 16.6681C20.6628 16.5868 20.5663 16.5223 20.4601 16.4783C20.354 16.4343 20.2402 16.4116 20.1252 16.4116C20.0103 16.4115 19.8965 16.4341 19.7903 16.4781C19.6841 16.522 19.5876 16.5865 19.5063 16.6677Z" fill="black"/>
</g>
<defs>
<clipPath id="clip0_993_3249">
<rect width="21" height="21" fill="white"/>
</clipPath>
</defs>
</svg>
