<svg width="11" height="10" viewBox="0 0 11 10" fill="none" xmlns="http://www.w3.org/2000/svg">
<path d="M8.92124 5.9995C8.79012 6.12657 8.72987 6.31034 8.75974 6.49056L9.2098 8.98131C9.24777 9.19242 9.15867 9.40606 8.98199 9.52806C8.80885 9.65463 8.5785 9.66981 8.38967 9.56856L6.14749 8.39913C6.06953 8.35761 5.98296 8.33534 5.89437 8.33281H5.75717C5.70959 8.33989 5.66301 8.35508 5.62049 8.37837L3.3778 9.55338C3.26693 9.60906 3.14138 9.62881 3.01836 9.60906C2.71866 9.55236 2.51869 9.26684 2.5678 8.96562L3.01836 6.47487C3.04823 6.29313 2.98799 6.10834 2.85687 5.97925L1.0288 4.20738C0.875911 4.05904 0.822754 3.83629 0.892617 3.63531C0.960454 3.43484 1.13359 3.28853 1.34267 3.25563L3.85874 2.89062C4.0501 2.87088 4.21817 2.75444 4.30424 2.58231L5.41292 0.30925C5.43925 0.258625 5.47317 0.21205 5.51417 0.172563L5.55974 0.137125C5.58353 0.1108 5.61087 0.0890313 5.64124 0.0713125L5.69642 0.0510625L5.78249 0.015625H5.99562C6.18597 0.0353688 6.35354 0.149275 6.44112 0.319375L7.56449 2.58231C7.64549 2.74786 7.80293 2.86278 7.98467 2.89062L10.5007 3.25563C10.7134 3.286 10.8911 3.43281 10.9614 3.63531C11.0277 3.83832 10.9705 4.06107 10.8146 4.20738L8.92124 5.9995Z" fill="#F5C03D"/>
</svg>
